<svg width="665" height="1066" viewBox="0 0 665 1066" fill="none" xmlns="http://www.w3.org/2000/svg">
<path fill-rule="evenodd" clip-rule="evenodd" d="M229 292.974L123 168H0V846H123V352L229 476.974V292.974ZM436 721.026L542 846H665V168H542V662L436 537.026V721.026Z" fill="white"/>
<rect x="268" y="168" width="129" height="678" fill="white"/>
<rect width="665" height="129" fill="white"/>
<path fill-rule="evenodd" clip-rule="evenodd" d="M665 898H0V1066H665V898ZM97.9091 953.136C100.667 955.167 102.227 958.015 102.591 961.682H121.455C121.364 956.136 119.879 951.258 117 947.045C114.121 942.833 110.091 939.545 104.909 937.182C99.7576 934.818 93.7273 933.636 86.8182 933.636C80.0303 933.636 73.9697 934.818 68.6364 937.182C63.303 939.545 59.1061 942.833 56.0455 947.045C53.0152 951.258 51.5152 956.182 51.5455 961.818C51.5152 968.697 53.7727 974.167 58.3182 978.227C62.8636 982.288 69.0606 985.273 76.9091 987.182L87.0455 989.727C90.4394 990.545 93.303 991.455 95.6364 992.455C98 993.455 99.7879 994.667 101 996.091C102.242 997.515 102.864 999.273 102.864 1001.36C102.864 1003.61 102.182 1005.59 100.818 1007.32C99.4545 1009.05 97.5303 1010.39 95.0455 1011.36C92.5909 1012.33 89.697 1012.82 86.3636 1012.82C82.9697 1012.82 79.9242 1012.3 77.2273 1011.27C74.5606 1010.21 72.4242 1008.65 70.8182 1006.59C69.2424 1004.5 68.3485 1001.89 68.1364 998.773H49.0909C49.2424 1005.47 50.8636 1011.09 53.9545 1015.64C57.0758 1020.15 61.4091 1023.56 66.9545 1025.86C72.5303 1028.17 79.0758 1029.32 86.5909 1029.32C94.1667 1029.32 100.636 1028.18 106 1025.91C111.394 1023.61 115.515 1020.38 118.364 1016.23C121.242 1012.05 122.697 1007.11 122.727 1001.41C122.697 997.53 121.985 994.091 120.591 991.091C119.227 988.091 117.303 985.485 114.818 983.273C112.333 981.061 109.394 979.197 106 977.682C102.606 976.167 98.8788 974.955 94.8182 974.045L86.4545 972.045C84.4242 971.591 82.5152 971.045 80.7273 970.409C78.9394 969.742 77.3636 968.97 76 968.091C74.6364 967.182 73.5606 966.106 72.7727 964.864C72.0152 963.621 71.6667 962.167 71.7273 960.5C71.7273 958.5 72.303 956.712 73.4545 955.136C74.6364 953.561 76.3333 952.333 78.5455 951.455C80.7576 950.545 83.4697 950.091 86.6818 950.091C91.4091 950.091 95.1515 951.106 97.9091 953.136ZM132.42 934.909V951.136H160.92V1028H180.375V951.136H208.875V934.909H132.42ZM298.648 934.909H278.966V993.682C278.966 997.227 278.178 1000.38 276.602 1003.14C275.057 1005.89 272.86 1008.06 270.011 1009.64C267.193 1011.21 263.875 1012 260.057 1012C256.269 1012 252.951 1011.21 250.102 1009.64C247.254 1008.06 245.042 1005.89 243.466 1003.14C241.92 1000.38 241.148 997.227 241.148 993.682V934.909H221.466V995.364C221.466 1002.15 223.072 1008.09 226.284 1013.18C229.496 1018.27 233.996 1022.24 239.784 1025.09C245.572 1027.91 252.33 1029.32 260.057 1029.32C267.754 1029.32 274.496 1027.91 280.284 1025.09C286.072 1022.24 290.572 1018.27 293.784 1013.18C297.027 1008.09 298.648 1002.15 298.648 995.364V934.909ZM314.841 1028H347.841C357.295 1028 365.417 1026.14 372.205 1022.41C379.023 1018.68 384.25 1013.33 387.886 1006.36C391.553 999.394 393.386 991.061 393.386 981.364C393.386 971.697 391.553 963.394 387.886 956.455C384.25 949.515 379.053 944.197 372.295 940.5C365.538 936.773 357.477 934.909 348.114 934.909H314.841V1028ZM347.023 1011.14H334.523V951.773H347.068C352.886 951.773 357.78 952.803 361.75 954.864C365.72 956.924 368.705 960.136 370.705 964.5C372.735 968.864 373.75 974.485 373.75 981.364C373.75 988.303 372.735 993.97 370.705 998.364C368.705 1002.73 365.705 1005.95 361.705 1008.05C357.735 1010.11 352.841 1011.14 347.023 1011.14ZM427.648 1028V934.909H407.966V1028H427.648ZM523.614 1007.36C527.462 1000.24 529.386 991.606 529.386 981.455C529.386 971.303 527.462 962.667 523.614 955.545C519.795 948.424 514.583 943 507.977 939.273C501.402 935.515 494.008 933.636 485.795 933.636C477.523 933.636 470.098 935.515 463.523 939.273C456.947 943 451.75 948.424 447.932 955.545C444.114 962.667 442.205 971.303 442.205 981.455C442.205 991.576 444.114 1000.2 447.932 1007.32C451.75 1014.44 456.947 1019.88 463.523 1023.64C470.098 1027.39 477.523 1029.27 485.795 1029.27C494.008 1029.27 501.402 1027.41 507.977 1023.68C514.583 1019.92 519.795 1014.48 523.614 1007.36ZM506.477 964.818C508.447 969.333 509.432 974.879 509.432 981.455C509.432 988.03 508.447 993.576 506.477 998.091C504.538 1002.61 501.795 1006.03 498.25 1008.36C494.705 1010.7 490.553 1011.86 485.795 1011.86C481.038 1011.86 476.886 1010.7 473.341 1008.36C469.795 1006.03 467.038 1002.61 465.068 998.091C463.129 993.576 462.159 988.03 462.159 981.455C462.159 974.879 463.129 969.333 465.068 964.818C467.038 960.303 469.795 956.879 473.341 954.545C476.886 952.212 481.038 951.045 485.795 951.045C490.553 951.045 494.705 952.212 498.25 954.545C501.795 956.879 504.538 960.303 506.477 964.818ZM589.784 953.136C592.542 955.167 594.102 958.015 594.466 961.682H613.33C613.239 956.136 611.754 951.258 608.875 947.045C605.996 942.833 601.966 939.545 596.784 937.182C591.633 934.818 585.602 933.636 578.693 933.636C571.905 933.636 565.845 934.818 560.511 937.182C555.178 939.545 550.981 942.833 547.92 947.045C544.89 951.258 543.39 956.182 543.42 961.818C543.39 968.697 545.648 974.167 550.193 978.227C554.739 982.288 560.936 985.273 568.784 987.182L578.92 989.727C582.314 990.545 585.178 991.455 587.511 992.455C589.875 993.455 591.663 994.667 592.875 996.091C594.117 997.515 594.739 999.273 594.739 1001.36C594.739 1003.61 594.057 1005.59 592.693 1007.32C591.33 1009.05 589.405 1010.39 586.92 1011.36C584.466 1012.33 581.572 1012.82 578.239 1012.82C574.845 1012.82 571.799 1012.3 569.102 1011.27C566.436 1010.21 564.299 1008.65 562.693 1006.59C561.117 1004.5 560.224 1001.89 560.011 998.773H540.966C541.117 1005.47 542.739 1011.09 545.83 1015.64C548.951 1020.15 553.284 1023.56 558.83 1025.86C564.405 1028.17 570.951 1029.32 578.466 1029.32C586.042 1029.32 592.511 1028.18 597.875 1025.91C603.269 1023.61 607.39 1020.38 610.239 1016.23C613.117 1012.05 614.572 1007.11 614.602 1001.41C614.572 997.53 613.86 994.091 612.466 991.091C611.102 988.091 609.178 985.485 606.693 983.273C604.208 981.061 601.269 979.197 597.875 977.682C594.481 976.167 590.754 974.955 586.693 974.045L578.33 972.045C576.299 971.591 574.39 971.045 572.602 970.409C570.814 969.742 569.239 968.97 567.875 968.091C566.511 967.182 565.436 966.106 564.648 964.864C563.89 963.621 563.542 962.167 563.602 960.5C563.602 958.5 564.178 956.712 565.33 955.136C566.511 953.561 568.208 952.333 570.42 951.455C572.633 950.545 575.345 950.091 578.557 950.091C583.284 950.091 587.026 951.106 589.784 953.136Z" fill="white"/>
</svg>
