<svg width="665" height="1051" viewBox="0 0 665 1051" fill="none" xmlns="http://www.w3.org/2000/svg">
<path fill-rule="evenodd" clip-rule="evenodd" d="M229 292.974L123 168H0V846H123V352L229 476.974V292.974ZM436 721.026L542 846H665V168H542V662L436 537.026V721.026Z" fill="white"/>
<rect x="268" y="168" width="129" height="678" fill="white"/>
<rect width="665" height="129" fill="white"/>
<path fill-rule="evenodd" clip-rule="evenodd" d="M665 883H0V1051H665V883ZM97.9091 938.136C100.667 940.167 102.227 943.015 102.591 946.682H121.455C121.364 941.136 119.879 936.258 117 932.045C114.121 927.833 110.091 924.545 104.909 922.182C99.7576 919.818 93.7273 918.636 86.8182 918.636C80.0303 918.636 73.9697 919.818 68.6364 922.182C63.303 924.545 59.1061 927.833 56.0455 932.045C53.0152 936.258 51.5152 941.182 51.5455 946.818C51.5152 953.697 53.7727 959.167 58.3182 963.227C62.8636 967.288 69.0606 970.273 76.9091 972.182L87.0455 974.727C90.4394 975.545 93.303 976.455 95.6364 977.455C98 978.455 99.7879 979.667 101 981.091C102.242 982.515 102.864 984.273 102.864 986.364C102.864 988.606 102.182 990.591 100.818 992.318C99.4545 994.045 97.5303 995.394 95.0455 996.364C92.5909 997.333 89.697 997.818 86.3636 997.818C82.9697 997.818 79.9242 997.303 77.2273 996.273C74.5606 995.212 72.4242 993.652 70.8182 991.591C69.2424 989.5 68.3485 986.894 68.1364 983.773H49.0909C49.2424 990.47 50.8636 996.091 53.9545 1000.64C57.0758 1005.15 61.4091 1008.56 66.9545 1010.86C72.5303 1013.17 79.0758 1014.32 86.5909 1014.32C94.1667 1014.32 100.636 1013.18 106 1010.91C111.394 1008.61 115.515 1005.38 118.364 1001.23C121.242 997.045 122.697 992.106 122.727 986.409C122.697 982.53 121.985 979.091 120.591 976.091C119.227 973.091 117.303 970.485 114.818 968.273C112.333 966.061 109.394 964.197 106 962.682C102.606 961.167 98.8788 959.955 94.8182 959.045L86.4545 957.045C84.4242 956.591 82.5152 956.045 80.7273 955.409C78.9394 954.742 77.3636 953.97 76 953.091C74.6364 952.182 73.5606 951.106 72.7727 949.864C72.0152 948.621 71.6667 947.167 71.7273 945.5C71.7273 943.5 72.303 941.712 73.4545 940.136C74.6364 938.561 76.3333 937.333 78.5455 936.455C80.7576 935.545 83.4697 935.091 86.6818 935.091C91.4091 935.091 95.1515 936.106 97.9091 938.136ZM132.42 919.909V936.136H160.92V1013H180.375V936.136H208.875V919.909H132.42ZM298.648 919.909H278.966V978.682C278.966 982.227 278.178 985.379 276.602 988.136C275.057 990.894 272.86 993.061 270.011 994.636C267.193 996.212 263.875 997 260.057 997C256.269 997 252.951 996.212 250.102 994.636C247.254 993.061 245.042 990.894 243.466 988.136C241.92 985.379 241.148 982.227 241.148 978.682V919.909H221.466V980.364C221.466 987.152 223.072 993.091 226.284 998.182C229.496 1003.27 233.996 1007.24 239.784 1010.09C245.572 1012.91 252.33 1014.32 260.057 1014.32C267.754 1014.32 274.496 1012.91 280.284 1010.09C286.072 1007.24 290.572 1003.27 293.784 998.182C297.027 993.091 298.648 987.152 298.648 980.364V919.909ZM314.841 1013H347.841C357.295 1013 365.417 1011.14 372.205 1007.41C379.023 1003.68 384.25 998.333 387.886 991.364C391.553 984.394 393.386 976.061 393.386 966.364C393.386 956.697 391.553 948.394 387.886 941.455C384.25 934.515 379.053 929.197 372.295 925.5C365.538 921.773 357.477 919.909 348.114 919.909H314.841V1013ZM347.023 996.136H334.523V936.773H347.068C352.886 936.773 357.78 937.803 361.75 939.864C365.72 941.924 368.705 945.136 370.705 949.5C372.735 953.864 373.75 959.485 373.75 966.364C373.75 973.303 372.735 978.97 370.705 983.364C368.705 987.727 365.705 990.955 361.705 993.045C357.735 995.106 352.841 996.136 347.023 996.136ZM427.648 1013V919.909H407.966V1013H427.648ZM523.614 992.364C527.462 985.242 529.386 976.606 529.386 966.455C529.386 956.303 527.462 947.667 523.614 940.545C519.795 933.424 514.583 928 507.977 924.273C501.402 920.515 494.008 918.636 485.795 918.636C477.523 918.636 470.098 920.515 463.523 924.273C456.947 928 451.75 933.424 447.932 940.545C444.114 947.667 442.205 956.303 442.205 966.455C442.205 976.576 444.114 985.197 447.932 992.318C451.75 999.439 456.947 1004.88 463.523 1008.64C470.098 1012.39 477.523 1014.27 485.795 1014.27C494.008 1014.27 501.402 1012.41 507.977 1008.68C514.583 1004.92 519.795 999.485 523.614 992.364ZM506.477 949.818C508.447 954.333 509.432 959.879 509.432 966.455C509.432 973.03 508.447 978.576 506.477 983.091C504.538 987.606 501.795 991.03 498.25 993.364C494.705 995.697 490.553 996.864 485.795 996.864C481.038 996.864 476.886 995.697 473.341 993.364C469.795 991.03 467.038 987.606 465.068 983.091C463.129 978.576 462.159 973.03 462.159 966.455C462.159 959.879 463.129 954.333 465.068 949.818C467.038 945.303 469.795 941.879 473.341 939.545C476.886 937.212 481.038 936.045 485.795 936.045C490.553 936.045 494.705 937.212 498.25 939.545C501.795 941.879 504.538 945.303 506.477 949.818ZM589.784 938.136C592.542 940.167 594.102 943.015 594.466 946.682H613.33C613.239 941.136 611.754 936.258 608.875 932.045C605.996 927.833 601.966 924.545 596.784 922.182C591.633 919.818 585.602 918.636 578.693 918.636C571.905 918.636 565.845 919.818 560.511 922.182C555.178 924.545 550.981 927.833 547.92 932.045C544.89 936.258 543.39 941.182 543.42 946.818C543.39 953.697 545.648 959.167 550.193 963.227C554.739 967.288 560.936 970.273 568.784 972.182L578.92 974.727C582.314 975.545 585.178 976.455 587.511 977.455C589.875 978.455 591.663 979.667 592.875 981.091C594.117 982.515 594.739 984.273 594.739 986.364C594.739 988.606 594.057 990.591 592.693 992.318C591.33 994.045 589.405 995.394 586.92 996.364C584.466 997.333 581.572 997.818 578.239 997.818C574.845 997.818 571.799 997.303 569.102 996.273C566.436 995.212 564.299 993.652 562.693 991.591C561.117 989.5 560.224 986.894 560.011 983.773H540.966C541.117 990.47 542.739 996.091 545.83 1000.64C548.951 1005.15 553.284 1008.56 558.83 1010.86C564.405 1013.17 570.951 1014.32 578.466 1014.32C586.042 1014.32 592.511 1013.18 597.875 1010.91C603.269 1008.61 607.39 1005.38 610.239 1001.23C613.117 997.045 614.572 992.106 614.602 986.409C614.572 982.53 613.86 979.091 612.466 976.091C611.102 973.091 609.178 970.485 606.693 968.273C604.208 966.061 601.269 964.197 597.875 962.682C594.481 961.167 590.754 959.955 586.693 959.045L578.33 957.045C576.299 956.591 574.39 956.045 572.602 955.409C570.814 954.742 569.239 953.97 567.875 953.091C566.511 952.182 565.436 951.106 564.648 949.864C563.89 948.621 563.542 947.167 563.602 945.5C563.602 943.5 564.178 941.712 565.33 940.136C566.511 938.561 568.208 937.333 570.42 936.455C572.633 935.545 575.345 935.091 578.557 935.091C583.284 935.091 587.026 936.106 589.784 938.136Z" fill="white"/>
</svg>
